<?xml version="1.0" encoding="UTF-8"?>
<svg width="30px" height="51px" viewBox="0 0 30 51" version="1.1" xmlns="http://www.w3.org/2000/svg" xmlns:xlink="http://www.w3.org/1999/xlink">
    <!-- Generator: Sketch 51.3 (57544) - http://www.bohemiancoding.com/sketch -->
    <title>map-marker / cc-center</title>
    <desc>Created with Sketch.</desc>
    <defs></defs>
    <g id="map-marker-/-cc-center" stroke="none" stroke-width="1" fill="none" fill-rule="evenodd">
        <g id="Group-7">
            <path d="M15,50.1523878 C17.375901,43.3354128 19.1587327,38.7618215 20.3484953,36.4316138 C26.2384656,24.8958216 30,22.1964518 30,15 C30,6.71572875 23.2842712,0 15,0 C6.71572875,0 3.03434394e-16,6.71572875 0,15 C0,23.1954825 4.99373582,25.8448979 10.2935691,36.4316138 C11.6136772,39.0686041 13.1824875,43.6421955 15,50.1523878 Z" id="Oval" fill="#2794B3"></path>
            <g id="building" transform="translate(8.000000, 7.000000)" fill="#FFFFFF" fill-rule="nonzero">
                <path d="M13.625,15 L13,15 L13,0.75 C13,0.33578125 12.6642187,0 12.25,0 L1.75,0 C1.33578125,0 1,0.33578125 1,0.75 L1,15 L0.375,15 C0.16790625,15 0,15.1679062 0,15.375 L0,16 L14,16 L14,15.375 C14,15.1679062 13.8320938,15 13.625,15 Z M4,2.375 C4,2.16790625 4.16790625,2 4.375,2 L5.625,2 C5.83209375,2 6,2.16790625 6,2.375 L6,3.625 C6,3.83209375 5.83209375,4 5.625,4 L4.375,4 C4.16790625,4 4,3.83209375 4,3.625 L4,2.375 Z M4,5.375 C4,5.16790625 4.16790625,5 4.375,5 L5.625,5 C5.83209375,5 6,5.16790625 6,5.375 L6,6.625 C6,6.83209375 5.83209375,7 5.625,7 L4.375,7 C4.16790625,7 4,6.83209375 4,6.625 L4,5.375 Z M5.625,10 L4.375,10 C4.16790625,10 4,9.83209375 4,9.625 L4,8.375 C4,8.16790625 4.16790625,8 4.375,8 L5.625,8 C5.83209375,8 6,8.16790625 6,8.375 L6,9.625 C6,9.83209375 5.83209375,10 5.625,10 Z M8,15 L6,15 L6,12.375 C6,12.1679062 6.16790625,12 6.375,12 L7.625,12 C7.83209375,12 8,12.1679062 8,12.375 L8,15 Z M10,9.625 C10,9.83209375 9.83209375,10 9.625,10 L8.375,10 C8.16790625,10 8,9.83209375 8,9.625 L8,8.375 C8,8.16790625 8.16790625,8 8.375,8 L9.625,8 C9.83209375,8 10,8.16790625 10,8.375 L10,9.625 Z M10,6.625 C10,6.83209375 9.83209375,7 9.625,7 L8.375,7 C8.16790625,7 8,6.83209375 8,6.625 L8,5.375 C8,5.16790625 8.16790625,5 8.375,5 L9.625,5 C9.83209375,5 10,5.16790625 10,5.375 L10,6.625 Z M10,3.625 C10,3.83209375 9.83209375,4 9.625,4 L8.375,4 C8.16790625,4 8,3.83209375 8,3.625 L8,2.375 C8,2.16790625 8.16790625,2 8.375,2 L9.625,2 C9.83209375,2 10,2.16790625 10,2.375 L10,3.625 Z" id="Shape"></path>
            </g>
        </g>
    </g>
</svg>