<?xml version="1.0" encoding="UTF-8"?>
<svg width="38px" height="63px" viewBox="0 0 38 63" version="1.1" xmlns="http://www.w3.org/2000/svg" xmlns:xlink="http://www.w3.org/1999/xlink">
    <!-- Generator: Sketch 51.3 (57544) - http://www.bohemiancoding.com/sketch -->
    <title>Group 7</title>
    <desc>Created with Sketch.</desc>
    <defs></defs>
    <g id="Symbols" stroke="none" stroke-width="1" fill="none" fill-rule="evenodd">
        <g id="map-marker-/-cc-center-copy-4">
            <g id="Group-7">
                <path d="M18.8235294,62.9363298 C21.8050522,54.3816945 24.0423313,48.6422858 25.5353667,45.7181036 C32.926702,31.2418154 37.6470588,27.8543709 37.6470588,18.8235294 C37.6470588,8.42758118 29.2194776,0 18.8235294,0 C8.42758118,0 3.80780416e-16,8.42758118 0,18.8235294 C0,29.1080565 6.26664887,32.432813 12.9174201,45.7181036 C14.5740263,49.0272679 16.5427294,54.7666767 18.8235294,62.9363298 Z" id="Oval" fill="#ADC512"></path>
                <g id="building" transform="translate(10.039216, 8.784314)" fill="#FFFFFF" fill-rule="nonzero">
                    <path d="M17.0980392,18.8235294 L16.3137255,18.8235294 L16.3137255,0.941176471 C16.3137255,0.421372549 15.8923529,0 15.372549,0 L2.19607843,0 C1.67627451,0 1.25490196,0.421372549 1.25490196,0.941176471 L1.25490196,18.8235294 L0.470588235,18.8235294 C0.210705882,18.8235294 0,19.0342353 0,19.2941176 L0,20.0784314 L17.5686275,20.0784314 L17.5686275,19.2941176 C17.5686275,19.0342353 17.3579216,18.8235294 17.0980392,18.8235294 Z M5.01960784,2.98039216 C5.01960784,2.7205098 5.23031373,2.50980392 5.49019608,2.50980392 L7.05882353,2.50980392 C7.31870588,2.50980392 7.52941176,2.7205098 7.52941176,2.98039216 L7.52941176,4.54901961 C7.52941176,4.80890196 7.31870588,5.01960784 7.05882353,5.01960784 L5.49019608,5.01960784 C5.23031373,5.01960784 5.01960784,4.80890196 5.01960784,4.54901961 L5.01960784,2.98039216 Z M5.01960784,6.74509804 C5.01960784,6.48521569 5.23031373,6.2745098 5.49019608,6.2745098 L7.05882353,6.2745098 C7.31870588,6.2745098 7.52941176,6.48521569 7.52941176,6.74509804 L7.52941176,8.31372549 C7.52941176,8.57360784 7.31870588,8.78431373 7.05882353,8.78431373 L5.49019608,8.78431373 C5.23031373,8.78431373 5.01960784,8.57360784 5.01960784,8.31372549 L5.01960784,6.74509804 Z M7.05882353,12.5490196 L5.49019608,12.5490196 C5.23031373,12.5490196 5.01960784,12.3383137 5.01960784,12.0784314 L5.01960784,10.5098039 C5.01960784,10.2499216 5.23031373,10.0392157 5.49019608,10.0392157 L7.05882353,10.0392157 C7.31870588,10.0392157 7.52941176,10.2499216 7.52941176,10.5098039 L7.52941176,12.0784314 C7.52941176,12.3383137 7.31870588,12.5490196 7.05882353,12.5490196 Z M10.0392157,18.8235294 L7.52941176,18.8235294 L7.52941176,15.5294118 C7.52941176,15.2695294 7.74011765,15.0588235 8,15.0588235 L9.56862745,15.0588235 C9.8285098,15.0588235 10.0392157,15.2695294 10.0392157,15.5294118 L10.0392157,18.8235294 Z M12.5490196,12.0784314 C12.5490196,12.3383137 12.3383137,12.5490196 12.0784314,12.5490196 L10.5098039,12.5490196 C10.2499216,12.5490196 10.0392157,12.3383137 10.0392157,12.0784314 L10.0392157,10.5098039 C10.0392157,10.2499216 10.2499216,10.0392157 10.5098039,10.0392157 L12.0784314,10.0392157 C12.3383137,10.0392157 12.5490196,10.2499216 12.5490196,10.5098039 L12.5490196,12.0784314 Z M12.5490196,8.31372549 C12.5490196,8.57360784 12.3383137,8.78431373 12.0784314,8.78431373 L10.5098039,8.78431373 C10.2499216,8.78431373 10.0392157,8.57360784 10.0392157,8.31372549 L10.0392157,6.74509804 C10.0392157,6.48521569 10.2499216,6.2745098 10.5098039,6.2745098 L12.0784314,6.2745098 C12.3383137,6.2745098 12.5490196,6.48521569 12.5490196,6.74509804 L12.5490196,8.31372549 Z M12.5490196,4.54901961 C12.5490196,4.80890196 12.3383137,5.01960784 12.0784314,5.01960784 L10.5098039,5.01960784 C10.2499216,5.01960784 10.0392157,4.80890196 10.0392157,4.54901961 L10.0392157,2.98039216 C10.0392157,2.7205098 10.2499216,2.50980392 10.5098039,2.50980392 L12.0784314,2.50980392 C12.3383137,2.50980392 12.5490196,2.7205098 12.5490196,2.98039216 L12.5490196,4.54901961 Z" id="Shape"></path>
                </g>
            </g>
        </g>
    </g>
</svg>