<?xml version="1.0" encoding="UTF-8"?>
<svg width="30px" height="51px" viewBox="0 0 30 51" version="1.1" xmlns="http://www.w3.org/2000/svg" xmlns:xlink="http://www.w3.org/1999/xlink">
    <!-- Generator: Sketch 51.3 (57544) - http://www.bohemiancoding.com/sketch -->
    <title>map-marker / family-care-hover</title>
    <desc>Created with Sketch.</desc>
    <defs></defs>
    <g id="map-marker-/-family-care-hover" stroke="none" stroke-width="1" fill="none" fill-rule="evenodd">
        <g id="Group-8">
            <g id="Group-7" fill="#ADC512">
                <path d="M15,50.1523878 C17.375901,43.3354128 19.1587327,38.7618215 20.3484953,36.4316138 C26.2384656,24.8958216 30,22.1964518 30,15 C30,6.71572875 23.2842712,0 15,0 C6.71572875,0 3.03434394e-16,6.71572875 0,15 C0,23.1954825 4.99373582,25.8448979 10.2935691,36.4316138 C11.6136772,39.0686041 13.1824875,43.6421955 15,50.1523878 Z" id="Oval"></path>
            </g>
            <path d="M21.5825129,17.5276074 L21.5825129,22.3976132 C21.5825129,22.8496096 21.2188768,23.2132458 20.7668804,23.2132458 L16.8246566,23.2132458 C16.6003576,23.2132458 16.4168403,23.0297284 16.4168403,22.8054295 L16.4168403,18.9991444 C16.4168403,18.7748454 16.233323,18.5913281 16.009024,18.5913281 L13.5621265,18.5913281 C13.3378275,18.5913281 13.1543102,18.7748454 13.1543102,18.9991444 L13.1543102,22.8054295 C13.1543102,23.0297284 12.9707929,23.2132458 12.746494,23.2132458 L8.80427011,23.2132458 C8.35227376,23.2132458 7.98863759,22.8496096 7.98863759,22.3976132 L7.98863759,17.5276074 C7.98863759,17.4052625 8.04301309,17.2897146 8.13817022,17.2115498 L14.5272916,11.95072 C14.6768243,11.8283751 14.8943263,11.8283751 15.0472574,11.95072 L21.4363788,17.2115498 C21.5281374,17.2897146 21.5825129,17.4052625 21.5825129,17.5276074 Z M24.4236329,15.4579399 L21.5825129,13.1163948 L21.5825129,8.40951549 C21.5825129,8.18521655 21.3989956,8.00169923 21.1746967,8.00169923 L19.2715541,8.00169923 C19.0472552,8.00169923 18.8637379,8.18521655 18.8637379,8.40951549 L18.8637379,10.8768039 L15.8221083,8.37213234 C15.2205793,7.87595589 14.3505713,7.87595589 13.7490423,8.37213234 L5.14751764,15.4579399 C4.97419573,15.6006756 4.95040645,15.8589592 5.09314214,16.0322811 L5.9597517,17.0858064 C6.10248739,17.2591283 6.36077102,17.2829176 6.53409293,17.1401819 L14.5272916,10.5573478 C14.6768243,10.4350029 14.8943263,10.4350029 15.0472574,10.5573478 L23.0404561,17.1401819 C23.213778,17.2829176 23.4720616,17.2591283 23.6147973,17.0858064 L24.4814069,16.0322811 C24.6241426,15.8555607 24.5969548,15.6006756 24.4236329,15.4579399 Z" id="Shape" fill="#FFFFFF" fill-rule="nonzero"></path>
        </g>
    </g>
</svg>