<?xml version="1.0" encoding="UTF-8"?>
<svg width="38px" height="63px" viewBox="0 0 38 63" version="1.1" xmlns="http://www.w3.org/2000/svg" xmlns:xlink="http://www.w3.org/1999/xlink">
    <!-- Generator: Sketch 51.3 (57544) - http://www.bohemiancoding.com/sketch -->
    <title>Group 8</title>
    <desc>Created with Sketch.</desc>
    <defs></defs>
    <g id="Symbols" stroke="none" stroke-width="1" fill="none" fill-rule="evenodd">
        <g id="map-marker-/-family-care-hover">
            <g id="Group-8">
                <g id="Group-7" fill="#ADC512">
                    <path d="M18.8235294,62.9363298 C21.8050522,54.3816945 24.0423313,48.6422858 25.5353667,45.7181036 C32.926702,31.2418154 37.6470588,27.8543709 37.6470588,18.8235294 C37.6470588,8.42758118 29.2194776,0 18.8235294,0 C8.42758118,0 3.80780416e-16,8.42758118 0,18.8235294 C0,29.1080565 6.26664887,32.432813 12.9174201,45.7181036 C14.5740263,49.0272679 16.5427294,54.7666767 18.8235294,62.9363298 Z" id="Oval"></path>
                </g>
                <path d="M27.0839378,21.9954289 L27.0839378,28.1068088 C27.0839378,28.6740199 26.6276101,29.1303476 26.060399,29.1303476 L21.1132945,29.1303476 C20.8318213,29.1303476 20.6015251,28.9000514 20.6015251,28.6185782 L20.6015251,23.8420636 C20.6015251,23.5605904 20.3712289,23.3302941 20.0897557,23.3302941 L17.0191391,23.3302941 C16.7376659,23.3302941 16.5073697,23.5605904 16.5073697,23.8420636 L16.5073697,28.6185782 C16.5073697,28.9000514 16.2770735,29.1303476 15.9956003,29.1303476 L11.0484958,29.1303476 C10.4812847,29.1303476 10.024957,28.6740199 10.024957,28.1068088 L10.024957,21.9954289 C10.024957,21.841898 10.0931929,21.6968967 10.2126058,21.5988076 L18.2303268,14.996982 C18.4179755,14.8434512 18.6909192,14.8434512 18.8828328,14.996982 L26.9005538,21.5988076 C27.0157019,21.6968967 27.0839378,21.841898 27.0839378,21.9954289 Z M30.6492648,19.398199 L27.0839378,16.4597896 L27.0839378,10.5531175 C27.0839378,10.2716443 26.8536416,10.0413481 26.5721684,10.0413481 L24.1839111,10.0413481 C23.9024379,10.0413481 23.6721416,10.2716443 23.6721416,10.5531175 L23.6721416,13.6493225 L19.8551947,10.5062053 C19.1003348,9.88355249 18.00856,9.88355249 17.2537001,10.5062053 L6.45962998,19.398199 C6.24212798,19.5773183 6.21227476,19.901439 6.39139406,20.118941 L7.47890409,21.441012 C7.65802339,21.658514 7.98214402,21.6883672 8.19964603,21.5092479 L18.2303268,13.2484365 C18.4179755,13.0949056 18.6909192,13.0949056 18.8828328,13.2484365 L28.9135135,21.5092479 C29.1310155,21.6883672 29.4551361,21.658514 29.6342554,21.441012 L30.7217655,20.118941 C30.9008848,19.8971742 30.8667668,19.5773183 30.6492648,19.398199 Z" id="Shape" fill="#FFFFFF" fill-rule="nonzero"></path>
            </g>
        </g>
    </g>
</svg>