<?xml version="1.0" encoding="UTF-8"?>
<svg width="30px" height="51px" viewBox="0 0 30 51" version="1.1" xmlns="http://www.w3.org/2000/svg" xmlns:xlink="http://www.w3.org/1999/xlink">
    <!-- Generator: Sketch 51.3 (57544) - http://www.bohemiancoding.com/sketch -->
    <title>map-marker / points copy</title>
    <desc>Created with Sketch.</desc>
    <defs></defs>
    <g id="map-marker-/-points-copy" stroke="none" stroke-width="1" fill="none" fill-rule="evenodd">
        <g id="Group-8" fill="#E73624">
            <g id="Group-7">
                <path d="M15,50.1523878 C17.375901,43.3354128 19.1587327,38.7618215 20.3484953,36.4316138 C26.2384656,24.8958216 30,22.1964518 30,15 C30,6.71572875 23.2842712,0 15,0 C6.71572875,0 3.03434394e-16,6.71572875 0,15 C0,23.1954825 4.99373582,25.8448979 10.2935691,36.4316138 C11.6136772,39.0686041 13.1824875,43.6421955 15,50.1523878 Z" id="Oval"></path>
            </g>
        </g>
        <path d="M10.368,22 L10.368,8.68 L15.696,8.68 C18.144,8.68 20.448,9.274 20.448,11.974 C20.448,13.864 19.26,14.764 17.91,15.034 L17.91,15.07 C19.53,15.358 20.808,16.204 20.808,18.328 C20.808,21.01 18.45,22 15.966,22 L10.368,22 Z M13.248,14.17 L15.408,14.17 C16.938,14.17 17.64,13.594 17.64,12.568 C17.64,11.524 17.01,10.948 15.444,10.948 L13.248,10.948 L13.248,14.17 Z M13.248,19.768 L15.606,19.768 C17.226,19.768 17.946,19.12 17.946,17.986 C17.946,16.816 17.1,16.24 15.48,16.24 L13.248,16.24 L13.248,19.768 Z" id="B" fill="#FFFFFF"></path>
    </g>
</svg>